PathFileType	4	(X/Y/Z)	D:\TRACE\v60_Jaco2_6-2-23\BothDRS_Motion1_8-platform.trc
DataRate	CameraRate	NumFrames	NumMarkers	Units	OrigDataRate	OrigDataStartFrame	OrigNumFrames
100.00	100.00	      42	5	mm	100.00	938	      7500
Frame#	Time	Left_Front			Right_Front			Left_Aft			Right_Aft			Post			
		X1	Y1	Z1	X2	Y2	Z2	X3	Y3	Z3	X4	Y4	Z4	X5	Y5	Z5	

938	9.370	-750.49200	-5.91171	-642.61200	819.26080	-4.26286	-648.00848	-658.46259	17.14102	492.25180	783.40668	17.30493	501.44055	35.24394	1286.50513	-992.62494	
939	9.380	-750.46942	-6.04587	-642.63226	819.31244	-4.63717	-648.11340	-658.44153	17.36115	492.13348	783.45062	17.57209	501.38101	34.81514	1286.08435	-993.35358	
940	9.390	-750.57013	-6.51427	-642.61035	819.37738	-4.94580	-648.18683	-658.07928	17.24810	492.56961	783.30377	17.86665	501.32440	35.12537	1285.45642	-994.30603	
941	9.400	-750.58600	-6.99316	-642.69525	819.50085	-5.22819	-648.21808	-658.48572	18.13819	492.01355	783.33423	18.10284	501.16391	35.00703	1284.85779	-995.20428	
942	9.410	-750.49951	-7.42772	-642.78455	819.40857	-5.50916	-648.29639	-658.42035	18.22159	491.95288	783.45410	18.29165	501.04846	35.28912	1284.43005	-996.30334	
943	9.420	-750.51031	-7.65428	-642.94678	819.22809	-5.92722	-648.34766	-658.47668	18.36019	491.90121	783.47723	18.45637	500.97818	35.05139	1283.80139	-997.56543	
944	9.430	-750.61310	-7.82586	-643.00873	819.07715	-6.33556	-648.53235	-658.55231	18.57647	491.86353	783.27539	18.66943	500.90686	35.21981	1283.15637	-998.30042	
945	9.440	-750.89630	-8.12338	-643.04382	818.86639	-6.50584	-648.58392	-658.92926	18.89049	491.81390	782.94916	19.06395	500.83942	34.69533	1282.68127	-999.40649	
946	9.450	-751.29736	-8.47145	-643.16644	818.63721	-6.91162	-648.52179	-659.33337	19.29249	491.60895	782.76801	19.35839	500.80719	34.25056	1282.33704	-1000.19177	
947	9.460	-751.54413	-8.70981	-643.30060	818.32642	-7.39082	-648.53595	-659.67297	19.64369	491.46249	782.58551	19.67898	500.77368	33.93172	1281.92041	-1000.81238	
948	9.470	-751.76898	-9.04938	-643.53412	818.07642	-7.75442	-648.58923	-659.97870	19.82227	491.35861	782.33612	19.90780	500.59106	33.84901	1281.28149	-1001.54944	
949	9.480	-752.00928	-9.39454	-643.58936	817.83093	-8.10870	-648.67932	-660.21527	19.99196	491.27164	782.12585	20.13850	500.60056	33.70269	1280.66284	-1002.11865	
950	9.490	-752.06140	-10.04082	-643.48999	817.51782	-8.46767	-648.91333	-660.33459	20.14247	491.17422	782.03418	20.45800	500.61005	33.78163	1279.96521	-1002.46118	
951	9.500	-752.47607	-10.43978	-643.43927	817.30005	-8.64437	-649.01062	-660.58398	20.40424	491.09683	781.70093	20.72127	500.52341	33.19379	1279.50964	-1002.76270	
952	9.510	-752.75580	-10.68440	-643.65186	817.09735	-8.82796	-649.03845	-660.79834	20.59706	491.07742	781.09814	20.82165	500.33841	33.05196	1278.92847	-1003.33698	
953	9.520	-753.01544	-11.03754	-643.78882	816.77075	-9.08751	-649.11987	-661.12476	20.78074	491.06094	780.55963	20.87995	500.19553	32.44493	1278.54333	-1003.99963	
954	9.530	-753.21912	-11.35045	-643.91577	816.55487	-9.47346	-649.16016	-661.49603	21.08187	490.98724	780.33588	21.06636	500.20114	32.39221	1278.20654	-1004.70789	
955	9.540	-753.64917	-11.68357	-643.78400	816.20612	-9.82306	-649.15405	-661.90833	21.36613	490.95859	780.16644	21.44921	500.19620	31.99919	1277.78589	-1005.61505	
956	9.550	-754.07007	-11.94091	-643.70453	815.74780	-10.15918	-649.20129	-662.39655	21.53284	490.95078	779.94934	21.79212	500.07339	31.51147	1277.22852	-1006.30847	
957	9.560	-754.59167	-12.12519	-643.72437	815.02509	-10.50159	-649.25494	-662.80481	21.71751	490.84497	779.64789	21.96881	499.93317	30.93034	1276.77222	-1006.98108	
958	9.570	-755.04932	-12.27515	-644.03320	814.70367	-10.65142	-649.32062	-663.25708	21.82911	490.73492	779.18506	22.13094	499.86551	30.41812	1276.38110	-1007.99817	
959	9.580	-755.46393	-12.65912	-644.11945	814.38489	-10.85944	-649.34937	-663.66614	21.99425	490.67963	778.24957	22.30272	499.81625	30.25102	1275.98364	-1008.62317	
960	9.590	-756.10486	-13.04122	-644.19757	814.10223	-11.22736	-649.21210	-664.06989	22.14551	490.61868	778.00842	22.43925	499.66199	29.85832	1275.34814	-1009.11401	
961	9.600	-756.30121	-13.26137	-644.23566	813.70044	-11.69398	-649.34131	-664.38281	22.48806	490.57651	777.59027	22.68260	499.55399	29.16015	1274.80396	-1009.73871	
962	9.610	-756.70886	-13.55041	-644.40649	813.17810	-12.12797	-649.51215	-665.00391	22.80359	490.44772	777.28424	23.06570	499.49750	28.62154	1274.41565	-1010.24121	
963	9.620	-757.10535	-13.88656	-644.45825	812.78912	-12.45828	-649.59534	-665.48761	22.96422	490.32449	776.89081	23.32921	499.48764	28.41486	1274.02295	-1010.63391	
964	9.630	-757.56842	-14.26035	-644.57513	812.21680	-12.59103	-649.48621	-665.94812	23.02289	490.29071	776.27606	23.39565	499.43042	27.82891	1273.53052	-1011.39050	
965	9.640	-758.15619	-14.77110	-644.33093	811.74396	-12.75937	-649.53058	-666.14996	22.96104	490.36520	775.51624	23.37201	499.26920	27.40209	1273.12024	-1012.00189	
966	9.650	-758.72687	-15.03187	-644.17065	811.09314	-13.03512	-649.60382	-666.65875	23.33950	490.15411	775.06555	23.63831	499.18344	26.85686	1272.69165	-1012.47070	
967	9.660	-759.24902	-15.10507	-644.23151	810.66345	-13.36138	-649.74756	-667.09033	23.36042	490.00714	774.93188	23.97144	499.23251	26.38767	1272.43005	-1012.93396	
968	9.670	-759.73517	-15.22748	-644.46039	810.24377	-13.58431	-649.81976	-667.97827	23.65796	489.85818	774.54297	24.20226	499.15414	25.67397	1271.96277	-1013.86407	
969	9.680	-760.41760	-15.50022	-644.71924	809.77948	-13.86008	-649.97357	-668.49359	23.74045	489.82559	773.63104	24.22353	498.98004	25.40838	1271.41895	-1014.12970	
970	9.690	-760.90826	-15.75571	-644.67627	808.80157	-14.11256	-650.01782	-668.92645	23.84173	489.82956	773.01404	24.36821	499.02054	24.73878	1271.05212	-1014.55585	
971	9.700	-761.35669	-16.03177	-644.82117	808.32172	-14.27925	-649.95105	-669.29901	24.03428	489.80975	772.58142	24.67731	499.04471	24.28878	1270.81897	-1015.16327	
972	9.710	-761.80548	-16.13524	-644.81824	807.82080	-14.42916	-649.86932	-670.02014	24.36182	489.66660	772.05414	24.91089	498.89069	23.61506	1270.42065	-1015.67719	
973	9.720	-762.70135	-16.31174	-644.68842	807.28900	-14.32400	-649.97076	-670.77209	24.45076	489.64218	771.55652	24.95493	498.90930	22.93420	1270.19641	-1015.96814	
974	9.730	-763.33276	-16.44222	-644.46222	806.70941	-14.48777	-650.02106	-671.31683	24.63301	489.69022	770.67883	24.91924	498.76407	22.09986	1269.76440	-1016.53107	
975	9.740	-763.89673	-16.85430	-644.90063	806.01715	-15.17530	-650.26489	-671.82837	24.90857	489.59479	770.25671	25.26607	498.70004	21.44191	1269.52600	-1017.19354	
976	9.750	-764.25140	-17.37341	-645.05902	805.44977	-15.36770	-650.20953	-672.50250	25.10935	489.56705	769.69348	25.56046	498.55850	20.79924	1269.06653	-1017.47894	
977	9.760	-765.05542	-17.77169	-645.13159	804.63007	-15.87564	-650.22711	-673.32910	25.04620	489.45755	769.41278	25.80130	498.55710	20.47753	1268.63977	-1017.73010	
978	9.770	-765.83289	-17.91887	-644.97656	804.05902	-15.93635	-650.25031	-674.01398	25.22227	489.46811	768.38202	25.79367	498.59866	19.81470	1268.07983	-1018.64923	
979	9.780	-766.43915	-17.90523	-644.92505	803.55402	-16.03665	-650.21503	-674.59967	25.42808	489.26648	767.46942	25.87231	498.47696	19.16732	1267.82825	-1019.22540	
